<?xml version="1.0" encoding="utf-8"?>
<!-- Generator: Adobe Illustrator 26.2.1, SVG Export Plug-In . SVG Version: 6.00 Build 0)  -->
<svg version="1.1" id="Layer_1" xmlns="http://www.w3.org/2000/svg" xmlns:xlink="http://www.w3.org/1999/xlink" x="0px" y="0px"
	 viewBox="0 0 1128.2 2000" style="enable-background:new 0 0 1128.2 2000;" xml:space="preserve">
<style type="text/css">
	.st0{fill:#9BC7E4;}
</style>
<g>
	<g>
		<path class="st0" d="M645.6,283.2c7.3-9.1-12.7-26.6-25.8-68.4c-17.1-54.5,1-75.5-18-96.5c-23.2-25.6-80.8-27.8-111.1,1.1
			c-22.8,21.8-22.6,53.9-22.4,71.8c0.8,100.9,96.7,176.7,105.5,170.5c7.5-5.3-44.1-74.1-25.7-92.6
			C566.1,251,632.7,299.1,645.6,283.2z"/>
	</g>
	<g>
		<path class="st0" d="M323.6,311.2c-7.5-33.9,10.5-80.6,46-91.8c27.9-8.9,54.3,8.1,60.6,12.2c42.7,27.6,60.3,91.8,37.9,136.2
			c-0.9,1.8-21.8,42-51.7,41.4c-16-0.3-29.5-15.3-55.8-45.2C338,338.2,326.7,325.4,323.6,311.2z"/>
	</g>
	<g>
		<path class="st0" d="M194.6,321.3c37.8-16.3,113.9,36.6,109.9,94.2c-1.9,28.2-23.1,58.7-50.5,63.9c-41.6,8-87.1-43.9-88.6-93.1
			C164.7,365.2,171.8,331.1,194.6,321.3z"/>
	</g>
	<g>
		<path class="st0" d="M21.8,420c22.4-15.3,77.3,12,95.4,55c12.8,30.3,9.5,73.7-11.4,84.3c-24.5,12.4-70.6-21.7-87.4-61.9
			C8,472.5,3.5,432.5,21.8,420z"/>
		<path class="st0" d="M44.2,536c-11.1-11.1-20.6-24.6-26.4-38.4c-9.9-23.8-15.7-65,3.6-78.1c7.5-5.1,19-5.8,32.2-1.8
			c22,6.5,51.4,27.1,64,57.1c12.5,29.6,10,74.1-11.6,85.1c-7.2,3.7-16.7,3.5-27.4-0.4C67,555.1,54.9,546.7,44.2,536z M21.8,420
			l0.3,0.5c-10.3,7-12.3,22.1-12.2,33.6c0.1,13.8,3.5,29.9,9,43.1c11.2,26.7,36.4,52.4,60.1,61.1c10.4,3.8,19.5,4,26.4,0.5
			c9.5-4.8,16-17.3,18-34.3c1.8-16.2-0.7-34.6-6.9-49.2c-12.5-29.6-41.5-50-63.2-56.4c-12.9-3.8-24-3.2-31.2,1.7L21.8,420z"/>
	</g>
	<path class="st0" d="M1111.1,160.9C1069.8,50.6,908.9-5.1,793.6,11.7c-30.4,4.4-98.6,14.4-131.3,68.4
		c-20.5,33.9-17.9,69.8-16.8,81.9c0.3,3.1,7.7,76.5,66.2,115.6c58.8,39.2,167,42.4,175,42.6c7,0.2,27.8,0.5,43.8,14.6
		c2.5,2.2,14.4,13.2,16.8,30.3c3.8,27.2-19.6,49.1-25.8,55c-37.5,35.2-87.5,27.1-88.6,39.3c-1.3,14.3,67.7,26.4,66.2,40.6
		c-0.9,8.4-25.8,13.7-43.7,13.3c-9-0.2-19.5-0.5-29.2-6.7c-19.2-12.4-13.7-34.8-25.8-50.5c-9.9-12.8-31.4-20.9-102.1-10.1
		c-91.5,14-91.5,33.2-159.3,40.4c-78,8.3-130.1,4.5-130.1,4.5c-19.3-1.4-46.4-4.4-71.8,11.2c-12.3,7.6-16.7,15-31.4,33.7
		c-37.4,47.6-56.1,71.4-77.4,79.7c-31.7,12.4-41.1-9.6-84.1,1.1c-9.5,2.3-51.8,12.9-70.7,48.2c-3,5.7-11.7,23.8-2.4,87.2
		c7.8,52.9,20.3,87.8,20.3,87.8c62.7,174.4,90,224.6,106.6,304c13.3,63.5,12.5,111.2,11.2,193c-1.5,94-12,116.4-18,237.8
		c-5.5,113.3-8.3,170,7.9,207.6c40.6,94.7,138.4,136.2,208.7,166c32,13.6,141.3,56.4,283.8,39.3c63.7-7.7,144.6-17.4,218.8-79.7
		c22.8-19.2,84.1-72.2,102.1-162.7c4.9-24.8,19.9-100.4-24.7-168.3c-37.1-56.4-94.7-76.2-117.8-84.1
		c-82.6-28.3-159.4-8.5-160.3-15.6c-1-7.6,87.4-18.9,87.4-34.9c-0.1-18.1-113.8-10.7-227.7-77.4c-61.3-35.9-106.7-83.8-101.1-92.5
		c7.8-12.1,115.2,47.3,122.4,35.3c5.7-9.6-59-53.4-53.2-63.4c7.9-13.7,139.4,51.1,144.1,42.1c4.3-8.2-102.5-67-96.5-80.8
		c9-20.5,260.3,73.3,272.6,46c9-19.9-110.1-102.4-111.1-158.2c-0.1-4.3-0.4-20.1,6-22.4c6.2-2.2,13.5,10.4,23.2,17.9
		c25.7,19.8,59.2-3.3,93.1-1.1c63.9,4.1,102.8,96.3,110.3,91.6c6.1-3.9-40.7-53.3-38.5-118.5c1.1-32.6,22.8-71.2,66.2-147
		c24.5-42.9,35.8-59.3,43-72c58.4-103.2-17-200.9-18.3-347.6C1029.8,306,1151.9,269.4,1111.1,160.9z M478.2,1803.3
		c36.9-84.6,29.3-202.2,43.8-227.2c34.2-58.6,120.7,30.8,135.1,80.6c9.7,33.5,9.1,83.9-15.3,110.6c-25.5,28-52,42.6-89.4,51.8
		C529,1824.8,467.2,1828.6,478.2,1803.3z M724,900.8c-26.8,37.5-55.4,57.5-103.5,90.7c-4.5,3.1-44.8,29.4-65.4,21.7
		c-42.3-15.7-21.4-102.4-37.8-142.7c-24.4-60.1-82.5-145.7-70.7-170.6c29.8-63.2,170.1-36.2,235,5.9
		C752.1,751.5,773,832.2,724,900.8z"/>
</g>
</svg>
